<?xml version="1.0" encoding="iso-8859-1"?>
<!-- Generator: Adobe Illustrator 19.0.0, SVG Export Plug-In . SVG Version: 6.00 Build 0)  -->
<svg version="1.1" id="Layer_1" xmlns="http://www.w3.org/2000/svg" xmlns:xlink="http://www.w3.org/1999/xlink" x="0px" y="0px"
	 viewBox="0 0 155.883 155.883" style="enable-background:new 0 0 155.883 155.883;" xml:space="preserve">
<g>
	<g>
		<g>
			<circle style="fill:#FF7500;" cx="98.922" cy="49.126" r="27.492"/>
		</g>
		<g>
			<circle style="fill:#FFD01F;" cx="99.304" cy="48.744" r="22.528"/>
		</g>
		<g>
			<circle style="fill:#FFD01F;" cx="99.304" cy="48.744" r="22.528"/>
		</g>
		<g>
			<g>
				<path style="fill:#FFB000;" d="M98.255,47.472V30.184c-9.617,0.434-17.407,7.843-18.452,17.288H98.255z"/>
			</g>
			<g>
				<path style="fill:#FFB000;" d="M118.805,47.217c-1.584-9.02-8.963-16.036-18.167-17.056v17.056H118.805z"/>
			</g>
			<g>
				<path style="fill:#FFB000;" d="M98.255,50.018v17.287c-9.617-0.434-17.407-7.842-18.452-17.287
					C79.803,50.018,98.255,50.018,98.255,50.018z"/>
			</g>
			<g>
				<path style="fill:#FFB000;" d="M118.805,50.271c-1.584,9.02-8.963,16.037-18.167,17.056V50.271H118.805z"/>
			</g>
		</g>
	</g>
	<g>
		<polygon style="fill:#ABD9D5;" points="94.687,155.883 37.939,155.883 29.469,47.883 103.157,47.883 		"/>
	</g>
	<g>
		<polygon style="fill:#CDE8E6;" points="64.663,155.883 37.939,155.883 29.469,47.883 64.663,47.883 		"/>
	</g>
	<g>
		<polygon style="fill:#DDF0EE;" points="88.758,141.883 43.868,141.883 35.398,47.883 97.228,47.883 		"/>
	</g>
	<g>
		<polygon style="fill:#FF7500;" points="37.304,68.606 43.868,141.449 88.758,141.449 95.321,68.606 		"/>
	</g>
	<g>
		<polygon style="fill:#FF4F0C;" points="66.736,68.606 37.304,68.606 43.868,141.449 66.736,141.449 		"/>
	</g>
	<path style="fill:#FFFFFF;" d="M84.175,127.346c-0.215,2.329-2.278,4.044-4.606,3.828l0,0c-2.329-0.215-4.043-2.277-3.828-4.606
		l4.048-43.857c0.215-2.329,2.278-4.043,4.606-3.828l0,0c2.329,0.215,4.043,2.277,3.828,4.606L84.175,127.346z"/>
	<g>
		<g>
			<polygon style="fill:#F62D8D;" points="37.694,0 42.682,47.433 51.565,47.433 46.576,0 			"/>
		</g>
	</g>
</g>
<g>
</g>
<g>
</g>
<g>
</g>
<g>
</g>
<g>
</g>
<g>
</g>
<g>
</g>
<g>
</g>
<g>
</g>
<g>
</g>
<g>
</g>
<g>
</g>
<g>
</g>
<g>
</g>
<g>
</g>
</svg>
