<?xml version="1.0" encoding="utf-8"?>
<!-- Generator: Adobe Illustrator 16.0.0, SVG Export Plug-In . SVG Version: 6.00 Build 0)  -->
<!DOCTYPE svg PUBLIC "-//W3C//DTD SVG 1.1//EN" "http://www.w3.org/Graphics/SVG/1.1/DTD/svg11.dtd">
<svg version="1.1" id="Layer_1" xmlns="http://www.w3.org/2000/svg" xmlns:xlink="http://www.w3.org/1999/xlink" x="0px" y="0px"
	 width="864px" height="864px" viewBox="0 0 864 864" enable-background="new 0 0 864 864" xml:space="preserve">
<path fill-rule="evenodd" clip-rule="evenodd" d="M233.12,614.001c-12.716-52.854-28.856-105.617-37.713-159.579
	c-21.667-132.02-10.199-153.479,123.911-166.097c91.847-8.641,186.19,0.166,278.567,9.549c56.812,5.769,65.953,23.608,74.107,80.661
	c10.303,0,21.018-0.935,31.516,0.162c41.359,4.335,67.193,40.527,58.256,81.904c-11.914,55.177-49.945,91.761-91.309,125.646
	c-11.303,9.256-23.463,17.468-39.309,29.167c39.723,9.939,76.033,17.435,111.297,28.318c31.666,9.776,69.955,21.209,70.953,59.854
	c0.965,37.589-36.434,48.787-66.697,59.244c-126.678,43.764-253.973,87.393-391.105,64.925
	c-50.288-8.238-99.221-24.809-148.733-37.727c-15.368-4.011-30.661-8.336-45.892-12.844c-21.146-6.258-42.861-11.236-63.132-19.659
	c-25.058-10.412-57.002-24.358-50.408-54.647c4.38-20.129,29.658-42.425,50.73-50.809
	C141.921,634.661,189.112,625.861,233.12,614.001z M232.272,392.186c-1.808,92.031,26.331,173.088,66.927,251.599
	c19.351,37.425,43.575,54.023,88.08,55.328c146.12,4.293,167.389-7.717,213.725-147.023
	c17.236-51.822,29.955-104.709,26.791-157.014C545,403.199,466.32,410.92,386.774,418.727c-0.244,32.993,1.16,65.629,1.16,65.629
	c4.052,0.874,45.312,8.092,45.312,17.802c0,0,0,122.99-1.417,124.614H321.584V498.921c14.564-9.71,30.747-11.328,45.312-14.565
	c0-18.466,1.159-51.254-1.619-67.968c0,0-9.889-2.996-17.208-4.388C310.883,404.94,273.167,397.918,232.272,392.186z
	 M80.561,698.345c84.499,81.825,613.078,82.972,694.562,3.037c-53.012-31.061-110.758-37.705-168.576-42.9
	c-5.396-0.486-14.523,8.918-17.262,15.632c-19.68,48.235-59.477,62.95-106.342,63.127c-47.734,0.178-95.953,0.459-143.009-6.114
	c-19.794-2.767-44.321-18.947-54.083-36.176c-19.239-33.957-35.327-36.715-73.583-33.236c-17.802,1.618-37.826,2.686-54.269,7.286
	C133.129,675.959,112,682,80.561,698.345z M616.871,346.994C618,304,235,298,234.472,348.012
	C367.835,380.299,492.398,379.26,616.871,346.994z M645.488,555.973c37.041-33.6,70.465-59.916,74.805-105.068
	c0.898-9.365-3.119-25.461-17.539-30.039c-9.854-5.132-30.902,12.554-33.982,22.619
	C658.484,477.081,653.947,512.442,645.488,555.973z"/>
</svg>
