<?xml version="1.0" encoding="iso-8859-1"?>
<!-- Generator: Adobe Illustrator 19.0.0, SVG Export Plug-In . SVG Version: 6.00 Build 0)  -->
<svg version="1.1" id="Layer_1" xmlns="http://www.w3.org/2000/svg" xmlns:xlink="http://www.w3.org/1999/xlink" x="0px" y="0px"
	 viewBox="0 0 512 512" style="enable-background:new 0 0 512 512;" xml:space="preserve">
<g transform="translate(1)">
	<g>
		<polygon style="fill:#FFE100;" points="118.467,503.467 391.533,503.467 391.533,452.267 118.467,452.267 		"/>
		<polygon style="fill:#FFE100;" points="101.4,452.267 408.6,452.267 408.6,42.667 101.4,42.667 		"/>
		<polygon style="fill:#FFE100;" points="101.4,42.667 408.6,42.667 408.6,8.533 101.4,8.533 		"/>
	</g>
	<polygon style="fill:#FFA800;" points="383,452.267 408.6,452.267 408.6,8.533 383,8.533 	"/>
	<polygon style="fill:#FFFFFF;" points="101.4,452.267 127,452.267 127,8.533 101.4,8.533 	"/>
	<polygon style="fill:#FFA800;" points="365.933,503.467 391.533,503.467 391.533,452.267 365.933,452.267 	"/>
	<polygon style="fill:#FFFFFF;" points="118.467,503.467 144.067,503.467 144.067,452.267 118.467,452.267 	"/>
	<g>
		<polygon style="fill:#63D3FD;" points="135.533,162.133 306.2,162.133 306.2,76.8 135.533,76.8 		"/>
		<polygon style="fill:#63D3FD;" points="135.533,247.467 306.2,247.467 306.2,162.133 135.533,162.133 		"/>
		<polygon style="fill:#63D3FD;" points="135.533,332.8 306.2,332.8 306.2,247.467 135.533,247.467 		"/>
		<polygon style="fill:#63D3FD;" points="340.333,119.467 374.467,119.467 374.467,85.333 340.333,85.333 		"/>
		<polygon style="fill:#63D3FD;" points="340.333,187.733 374.467,187.733 374.467,153.6 340.333,153.6 		"/>
		<polygon style="fill:#63D3FD;" points="340.333,256 374.467,256 374.467,221.867 340.333,221.867 		"/>
		<polygon style="fill:#63D3FD;" points="340.333,324.267 374.467,324.267 374.467,290.133 340.333,290.133 		"/>
		<polygon style="fill:#63D3FD;" points="135.533,418.133 374.467,418.133 374.467,366.933 135.533,366.933 		"/>
	</g>
	<polygon style="fill:#3DB9F9;" points="348.867,418.133 374.467,418.133 374.467,366.933 348.867,366.933 	"/>
	<path d="M391.533,512H118.467c-5.12,0-8.533-3.413-8.533-8.533v-51.2c0-5.12,3.413-8.533,8.533-8.533h273.067
		c5.12,0,8.533,3.413,8.533,8.533v51.2C400.067,508.587,396.653,512,391.533,512z M127,494.933h256V460.8H127V494.933z"/>
	<path d="M408.6,460.8H101.4c-5.12,0-8.533-3.413-8.533-8.533v-409.6c0-5.12,3.413-8.533,8.533-8.533h307.2
		c5.12,0,8.533,3.413,8.533,8.533v409.6C417.133,457.387,413.72,460.8,408.6,460.8z M109.933,443.733h290.133V51.2H109.933V443.733z
		"/>
	<path d="M408.6,51.2H101.4c-5.12,0-8.533-3.413-8.533-8.533V8.533C92.867,3.413,96.28,0,101.4,0h307.2
		c5.12,0,8.533,3.413,8.533,8.533v34.133C417.133,47.787,413.72,51.2,408.6,51.2z M109.933,34.133h290.133V17.067H109.933V34.133z"
		/>
	<path d="M306.2,170.667H135.533c-5.12,0-8.533-3.413-8.533-8.533V76.8c0-5.12,3.413-8.533,8.533-8.533H306.2
		c5.12,0,8.533,3.413,8.533,8.533v85.333C314.733,167.253,311.32,170.667,306.2,170.667z M144.067,153.6h153.6V85.333h-153.6V153.6z
		"/>
	<path d="M306.2,256H135.533c-5.12,0-8.533-3.413-8.533-8.533v-85.333c0-5.12,3.413-8.533,8.533-8.533H306.2
		c5.12,0,8.533,3.413,8.533,8.533v85.333C314.733,252.587,311.32,256,306.2,256z M144.067,238.933h153.6v-68.267h-153.6V238.933z"/>
	<path d="M306.2,341.333H135.533c-5.12,0-8.533-3.413-8.533-8.533v-85.333c0-5.12,3.413-8.533,8.533-8.533H306.2
		c5.12,0,8.533,3.413,8.533,8.533V332.8C314.733,337.92,311.32,341.333,306.2,341.333z M144.067,324.267h153.6V256h-153.6V324.267z"
		/>
	<path d="M374.467,128h-34.133c-5.12,0-8.533-3.413-8.533-8.533V85.333c0-5.12,3.413-8.533,8.533-8.533h34.133
		c5.12,0,8.533,3.413,8.533,8.533v34.133C383,124.587,379.587,128,374.467,128z M348.867,110.933h17.067V93.867h-17.067V110.933z"/>
	<path d="M374.467,196.267h-34.133c-5.12,0-8.533-3.413-8.533-8.533V153.6c0-5.12,3.413-8.533,8.533-8.533h34.133
		c5.12,0,8.533,3.413,8.533,8.533v34.133C383,192.853,379.587,196.267,374.467,196.267z M348.867,179.2h17.067v-17.067h-17.067
		V179.2z"/>
	<path d="M374.467,264.533h-34.133c-5.12,0-8.533-3.413-8.533-8.533v-34.133c0-5.12,3.413-8.533,8.533-8.533h34.133
		c5.12,0,8.533,3.413,8.533,8.533V256C383,261.12,379.587,264.533,374.467,264.533z M348.867,247.467h17.067V230.4h-17.067V247.467z
		"/>
	<path d="M374.467,332.8h-34.133c-5.12,0-8.533-3.413-8.533-8.533v-34.133c0-5.12,3.413-8.533,8.533-8.533h34.133
		c5.12,0,8.533,3.413,8.533,8.533v34.133C383,329.387,379.587,332.8,374.467,332.8z M348.867,315.733h17.067v-17.067h-17.067
		V315.733z"/>
	<path d="M374.467,426.667H135.533c-5.12,0-8.533-3.413-8.533-8.533v-51.2c0-5.12,3.413-8.533,8.533-8.533h238.933
		c5.12,0,8.533,3.413,8.533,8.533v51.2C383,423.253,379.587,426.667,374.467,426.667z M144.067,409.6h221.867v-34.133H144.067V409.6
		z"/>
	<path d="M502.467,512H7.533C2.413,512-1,508.587-1,503.467c0-5.12,3.413-8.533,8.533-8.533h494.933c5.12,0,8.533,3.413,8.533,8.533
		C511,508.587,507.587,512,502.467,512z"/>
	<path d="M169.667,136.533c-5.12,0-8.533-3.413-8.533-8.533v-17.067c0-5.12,3.413-8.533,8.533-8.533c5.12,0,8.533,3.413,8.533,8.533
		V128C178.2,133.12,174.787,136.533,169.667,136.533z"/>
	<path d="M203.8,136.533c-5.12,0-8.533-3.413-8.533-8.533v-17.067c0-5.12,3.413-8.533,8.533-8.533c5.12,0,8.533,3.413,8.533,8.533
		V128C212.333,133.12,208.92,136.533,203.8,136.533z"/>
	<path d="M237.933,136.533c-5.12,0-8.533-3.413-8.533-8.533v-17.067c0-5.12,3.413-8.533,8.533-8.533c5.12,0,8.533,3.413,8.533,8.533
		V128C246.467,133.12,243.053,136.533,237.933,136.533z"/>
	<path d="M272.067,136.533c-5.12,0-8.533-3.413-8.533-8.533v-17.067c0-5.12,3.413-8.533,8.533-8.533s8.533,3.413,8.533,8.533V128
		C280.6,133.12,277.187,136.533,272.067,136.533z"/>
	<path d="M169.667,221.867c-5.12,0-8.533-3.413-8.533-8.533v-17.067c0-5.12,3.413-8.533,8.533-8.533c5.12,0,8.533,3.413,8.533,8.533
		v17.067C178.2,218.453,174.787,221.867,169.667,221.867z"/>
	<path d="M203.8,221.867c-5.12,0-8.533-3.413-8.533-8.533v-17.067c0-5.12,3.413-8.533,8.533-8.533c5.12,0,8.533,3.413,8.533,8.533
		v17.067C212.333,218.453,208.92,221.867,203.8,221.867z"/>
	<path d="M237.933,221.867c-5.12,0-8.533-3.413-8.533-8.533v-17.067c0-5.12,3.413-8.533,8.533-8.533c5.12,0,8.533,3.413,8.533,8.533
		v17.067C246.467,218.453,243.053,221.867,237.933,221.867z"/>
	<path d="M272.067,221.867c-5.12,0-8.533-3.413-8.533-8.533v-17.067c0-5.12,3.413-8.533,8.533-8.533s8.533,3.413,8.533,8.533v17.067
		C280.6,218.453,277.187,221.867,272.067,221.867z"/>
	<path d="M169.667,307.2c-5.12,0-8.533-3.413-8.533-8.533V281.6c0-5.12,3.413-8.533,8.533-8.533c5.12,0,8.533,3.413,8.533,8.533
		v17.067C178.2,303.787,174.787,307.2,169.667,307.2z"/>
	<path d="M203.8,307.2c-5.12,0-8.533-3.413-8.533-8.533V281.6c0-5.12,3.413-8.533,8.533-8.533c5.12,0,8.533,3.413,8.533,8.533
		v17.067C212.333,303.787,208.92,307.2,203.8,307.2z"/>
	<path d="M237.933,307.2c-5.12,0-8.533-3.413-8.533-8.533V281.6c0-5.12,3.413-8.533,8.533-8.533c5.12,0,8.533,3.413,8.533,8.533
		v17.067C246.467,303.787,243.053,307.2,237.933,307.2z"/>
	<path d="M272.067,307.2c-5.12,0-8.533-3.413-8.533-8.533V281.6c0-5.12,3.413-8.533,8.533-8.533s8.533,3.413,8.533,8.533v17.067
		C280.6,303.787,277.187,307.2,272.067,307.2z"/>
</g>
<g>
</g>
<g>
</g>
<g>
</g>
<g>
</g>
<g>
</g>
<g>
</g>
<g>
</g>
<g>
</g>
<g>
</g>
<g>
</g>
<g>
</g>
<g>
</g>
<g>
</g>
<g>
</g>
<g>
</g>
</svg>
